<svg width="45" height="45" viewBox="0 0 45 45" fill="none" xmlns="http://www.w3.org/2000/svg">
<path d="M8.85001 4.99999C9 7.225 9.37499 9.40001 9.97501 11.475L6.975 14.475C5.95 11.475 5.3 8.3 5.075 4.99999H8.85001ZM33.5 35.0501C35.6251 35.65 37.8 36.025 40.0001 36.1751V39.9001C36.7 39.6751 33.525 39.025 30.5 38.025L33.5 35.0501ZM11.25 0H2.5C1.125 0 0 1.125 0 2.5C0 25.975 19.025 45 42.5 45C43.875 45 45 43.875 45 42.5V33.775C45 32.4 43.875 31.275 42.5 31.275C39.4 31.275 36.3749 30.7751 33.5749 29.8499C33.325 29.7499 33.05 29.725 32.8001 29.725C32.15 29.725 31.525 29.9749 31.025 30.4501L25.525 35.9501C18.45 32.3249 12.65 26.55 9.04999 19.475L14.55 13.975C15.25 13.275 15.45 12.3 15.175 11.425C14.25 8.62501 13.75 5.625 13.75 2.5C13.75 1.125 12.625 0 11.25 0Z" fill="white"/>
</svg>
